<svg xmlns="http://www.w3.org/2000/svg" width="13.969" height="20" viewBox="0 0 13.969 20">
  <defs>
    <style>
      .cls-1 {
        fill: #fff;
        fill-rule: evenodd;
      }
    </style>
  </defs>
  <path id="_500px" data-name="500px" class="cls-1" d="M191.726,574.141c0,0.012.1,0.3,0.151,0.441a6.61,6.61,0,0,0,1.261,2.08,5.875,5.875,0,0,0,1.871,1.4,5.363,5.363,0,0,0,4.582,0,5.886,5.886,0,0,0,1.871-1.4,6.622,6.622,0,0,0,1.261-2.081,7.245,7.245,0,0,0,0-5.1,6.628,6.628,0,0,0-1.261-2.08,5.886,5.886,0,0,0-1.871-1.4,5.338,5.338,0,0,0-2.291-.515,5.487,5.487,0,0,0-2.323.515,7.7,7.7,0,0,0-2.107,1.612l0,0v-5.388H201c0.3,0,.3-0.463.3-0.614s0-.611-0.3-0.615h-8.8a0.411,0.411,0,0,0-.387.427v7.583a0.609,0.609,0,0,0,.528.482,0.544,0.544,0,0,0,.734-0.245l0.016-.025a10.168,10.168,0,0,1,.773-0.964,4.5,4.5,0,0,1,6.816,0,5.766,5.766,0,0,1,.007,7.55,4.632,4.632,0,0,1-3.424,1.563,4.308,4.308,0,0,1-2.426-.744l0-4.612a2.975,2.975,0,0,1,.642-1.788,2.257,2.257,0,0,1,1.783-.894,2.356,2.356,0,0,1,1.758.8,2.827,2.827,0,0,1,.716,1.909,2.6,2.6,0,0,1-2.48,2.748,3.983,3.983,0,0,1-.776-0.138c-0.281-.093-0.4.341-0.439,0.484-0.151.549,0.076,0.658,0.123,0.675a3.071,3.071,0,0,0,1.126.183,3.967,3.967,0,0,0,0-7.892,3.425,3.425,0,0,0-2.542,1.15,3.887,3.887,0,0,0-1.016,2.584v0.024c0,0.116-.005,2.881-0.006,3.788l0,0a6.369,6.369,0,0,1-.975-1.861c-0.095-.278-0.309-0.229-0.6-0.129-0.128.044-.516,0.177-0.43,0.489v0h0Zm4.182-1.083a0.526,0.526,0,0,0,.175.318L196.1,573.4a0.462,0.462,0,0,0,.316.184,0.209,0.209,0,0,0,.149-0.061c0.049-.051.606-0.678,0.659-0.738l0.621,0.688a0.251,0.251,0,0,0,.192.11,0.464,0.464,0,0,0,.321-0.194c0.268-.3.134-0.469,0.069-0.548l-0.628-.7,0.655-.734a0.371,0.371,0,0,0-.109-0.5c-0.184-.205-0.362-0.258-0.476-0.141l-0.652.726-0.659-.733a0.169,0.169,0,0,0-.128-0.057,0.475,0.475,0,0,0-.309.2c-0.2.226-.246,0.382-0.141,0.506l0.66,0.732-0.656.73a0.279,0.279,0,0,0-.08.192h0Zm1.437-9.915a7.253,7.253,0,0,0-3,.633,0.259,0.259,0,0,0-.153.228,1.017,1.017,0,0,0,.078.42c0.051,0.146.187,0.532,0.449,0.42a6.894,6.894,0,0,1,2.625-.555,6.478,6.478,0,0,1,2.775.623,7.7,7.7,0,0,1,2.072,1.493,0.237,0.237,0,0,0,.165.076,0.633,0.633,0,0,0,.388-0.295c0.191-.239.323-0.437,0.134-0.636a7.61,7.61,0,0,0-2.358-1.694,7.41,7.41,0,0,0-3.176-.713h0Zm5.681,14.481h0a0.847,0.847,0,0,0-.329-0.255,0.226,0.226,0,0,0-.249.067l-0.062.069a7.093,7.093,0,0,1-2.262,1.7,6.474,6.474,0,0,1-5.538,0,7.1,7.1,0,0,1-2.261-1.7,7.676,7.676,0,0,1-1.525-2.515,9.379,9.379,0,0,1-.463-1.778c0-.021-0.006-0.037-0.008-0.049-0.044-.258-0.258-0.276-0.566-0.224-0.128.022-.517,0.088-0.48,0.4v0.007a9.852,9.852,0,0,0,.541,2.1,9.176,9.176,0,0,0,1.751,2.889,8.164,8.164,0,0,0,2.6,1.948,7.436,7.436,0,0,0,6.363,0,8.149,8.149,0,0,0,2.6-1.948s0.043-.047.066-0.075c0.082-.1.154-0.275-0.174-0.638h0Z" transform="translate(-189.281 -561)"/>
</svg>
