<svg xmlns="http://www.w3.org/2000/svg" width="16" height="16" viewBox="0 0 16 16">
  <defs>
    <style>
      .cls-1 {
        fill: #fff;
        fill-rule: evenodd;
      }
    </style>
  </defs>
  <path id="instagram" class="cls-1" d="M269.1,502.968c0.259,0,.549,0,0.875,0,2.6,0,2.912.009,3.941,0.056a5.375,5.375,0,0,1,1.811.336,3.234,3.234,0,0,1,1.85,1.853,5.384,5.384,0,0,1,.336,1.813c0.047,1.03.057,1.339,0.057,3.945s-0.01,2.916-.057,3.945a5.379,5.379,0,0,1-.336,1.813,3.242,3.242,0,0,1-1.85,1.853,5.375,5.375,0,0,1-1.811.336c-1.028.047-1.337,0.057-3.941,0.057s-2.913-.01-3.941-0.057a5.4,5.4,0,0,1-1.812-.337,3.234,3.234,0,0,1-1.851-1.852,5.41,5.41,0,0,1-.336-1.813c-0.047-1.03-.056-1.339-0.056-3.947s0.009-2.916.056-3.945a5.437,5.437,0,0,1,.336-1.813,3.238,3.238,0,0,1,1.851-1.854,5.376,5.376,0,0,1,1.812-.337c0.9-.041,1.248-0.053,3.066-0.055v0h0Zm6.081,1.621a1.172,1.172,0,1,0,1.17,1.172,1.172,1.172,0,0,0-1.17-1.172h0Zm-5.206,1.369a5.015,5.015,0,1,0,5.007,5.016,5.013,5.013,0,0,0-5.007-5.016h0Zm0,1.76a3.256,3.256,0,1,1-3.251,3.256,3.254,3.254,0,0,1,3.251-3.256h0Z" transform="translate(-261.969 -502.969)"/>
</svg>
