<svg xmlns="http://www.w3.org/2000/svg" width="22" height="14" viewBox="0 0 22 14">
  <defs>
    <style>
      .cls-1 {
        fill: #fff;
        fill-rule: evenodd;
      }
    </style>
  </defs>
  <path id="last.fm" class="cls-1" d="M122.835,573.352a5.465,5.465,0,0,1-4.382,2.574,5.159,5.159,0,0,1,.074-10.307,4.4,4.4,0,0,1,4.3,2.985c0.455,1.242,2.009,4.859,2.009,4.859s1.056,4.266,4.639,4.266a4.152,4.152,0,0,0,4.287-4.244c-0.062-1.042,0-2.795-3.293-3.75s-2.92-2.13-2.9-2.4a2,2,0,0,1,1.908-1.782c1.533-.022,1.63,1.027,1.63,1.027l1.412-.687a3.265,3.265,0,0,0-3.045-2.171,3.44,3.44,0,0,0-3.438,3.542c0.047,1.386.041,2.911,4.225,4.2,0,0,1.988.488,1.843,2.042a2.383,2.383,0,0,1-2.713,2.374c-1.657-.044-2.361-0.954-3.334-3.817s-2.279-8.312-7.622-8.357-6.845,6.157-6.675,7.093c0.148,0.814.016,5.858,6.726,6.889,0,0,2.622.533,5.2-2.5Z" transform="translate(-111.75 -563.719)"/>
</svg>
