<svg xmlns="http://www.w3.org/2000/svg" width="16" height="14" viewBox="0 0 16 14">
  <defs>
    <style>
      .cls-1 {
        fill: #fff;
        fill-rule: evenodd;
      }
    </style>
  </defs>
  <path id="twitter" class="cls-1" d="M196.765,507.787l0.035,0.605-0.578-.074a9.214,9.214,0,0,1-5.5-2.865l-0.763-.8-0.2.592a3.718,3.718,0,0,0,.717,3.655c0.462,0.519.358,0.593-.44,0.284a1.3,1.3,0,0,0-.543-0.136,4.622,4.622,0,0,0,.416,1.655,3.833,3.833,0,0,0,1.584,1.58l0.566,0.284-0.67.013c-0.648,0-.671.012-0.6,0.271a3.57,3.57,0,0,0,2.161,2.025l0.717,0.26-0.624.395a6.247,6.247,0,0,1-3.1.914,3.251,3.251,0,0,0-.948.1,8.576,8.576,0,0,0,2.231,1.087,9.293,9.293,0,0,0,7.583-.914,10.592,10.592,0,0,0,3.85-4.791,13.362,13.362,0,0,0,.786-3.7,1.456,1.456,0,0,1,.682-1.321,7.786,7.786,0,0,0,.809-0.951c0.116-.235.1-0.235-0.485-0.025-0.983.371-1.122,0.321-.636-0.234a3.644,3.644,0,0,0,.786-1.321,0.6,0.6,0,0,0-.37.135,6.17,6.17,0,0,1-1.017.42l-0.624.21-0.567-.407a4.587,4.587,0,0,0-.982-0.544,3.735,3.735,0,0,0-2.023.05,3.54,3.54,0,0,0-2.255,3.556h0Z" transform="translate(-189 -504.063)"/>
</svg>
