<svg xmlns="http://www.w3.org/2000/svg" width="20" height="12" viewBox="0 0 20 12">
  <defs>
    <style>
      .cls-1 {
        fill: #fff;
        fill-rule: evenodd;
      }
    </style>
  </defs>
  <path id="vk" class="cls-1" d="M59.543,505.813c0.139-.469,0-0.813-0.662-0.813H56.693a0.945,0.945,0,0,0-.952.625,18.543,18.543,0,0,1-2.689,4.52,1.591,1.591,0,0,1-1.02.679c-0.139,0-.34-0.164-0.34-0.632v-4.379c0-.563-0.161-0.813-0.625-0.813H47.628a0.53,0.53,0,0,0-.557.508c0,0.533.788,0.656,0.869,2.155v3.255c0,0.714-.128.843-0.406,0.843-0.742,0-2.546-2.752-3.616-5.9A0.945,0.945,0,0,0,42.939,505H40.75c-0.625,0-.75.3-0.75,0.625,0,0.586.742,3.49,3.454,7.33A8.51,8.51,0,0,0,50.128,517c1.391,0,1.563-.316,1.563-0.86v-1.982c0-.632.132-0.758,0.572-0.758,0.325,0,.881.164,2.179,1.429,1.484,1.5,1.728,2.171,2.563,2.171h2.188a0.667,0.667,0,0,0,.757-0.939,9.5,9.5,0,0,0-1.846-2.591c-0.51-.608-1.275-1.264-1.507-1.592a0.684,0.684,0,0,1,0-.984S59.265,507.1,59.543,505.813Z" transform="translate(-40 -505)"/>
</svg>
